<svg xmlns="http://www.w3.org/2000/svg" xmlns:xlink="http://www.w3.org/1999/xlink" width="1024" zoomAndPan="magnify" viewBox="0 0 768 767.999994" height="1024" preserveAspectRatio="xMidYMid meet" version="1.0"><defs><clipPath id="6d44dc1f2c"><path d="M 0 18.34375 L 768 18.34375 L 768 749.59375 L 0 749.59375 Z M 0 18.34375 " clip-rule="nonzero"/></clipPath></defs><g clip-path="url(#6d44dc1f2c)"><path fill="#ff914d" d="M 754.757812 262.761719 C 713.207031 109.765625 587.507812 18.421875 418.5 18.421875 L 0.00390625 18.421875 L 8.261719 37.34375 C 43.730469 118.632812 123.980469 171.1875 212.699219 171.214844 L 326.65625 171.214844 L 327.589844 171.1875 C 331.917969 170.878906 347.925781 169.90625 371.929688 169.90625 C 395.015625 169.90625 418.539062 170.816406 441.757812 172.59375 L 444.039062 172.769531 C 532.949219 179.761719 654.761719 203.007812 730.039062 273.867188 L 731.003906 274.765625 C 731.394531 275.144531 731.796875 275.5 732.167969 275.890625 L 767.992188 311.5625 Z M 766.222656 439.089844 L 766.125 440.558594 C 743.519531 631.1875 608.886719 749.59375 414.773438 749.59375 L 147.785156 749.59375 L 147.785156 388.691406 L 161.292969 388.691406 C 239.460938 388.691406 303.046875 452.273438 303.046875 530.429688 L 303.046875 594.332031 L 421.292969 594.332031 C 479.53125 594.332031 528.570312 575.210938 563.132812 539.023438 C 598.304688 502.195312 616.890625 448.972656 616.890625 385.109375 L 616.890625 382.914062 C 616.890625 333.460938 606.015625 290.824219 584.558594 256.160156 L 564.53125 223.804688 L 600.480469 236.28125 C 645.085938 251.757812 681.269531 272.367188 708.015625 297.5625 C 747.101562 334.371094 766.683594 381.984375 766.222656 439.089844 " fill-opacity="1" fill-rule="nonzero"/></g></svg>